<?xml version="1.0" encoding="utf-8"?>
<!-- Generator: Adobe Illustrator 22.1.0, SVG Export Plug-In . SVG Version: 6.00 Build 0)  -->
<svg version="1.1" id="Capa_1" xmlns="http://www.w3.org/2000/svg" xmlns:xlink="http://www.w3.org/1999/xlink" x="0px" y="0px"
	 viewBox="0 0 1100 233" style="enable-background:new 0 0 1100 233;" xml:space="preserve">
<style type="text/css">
	.st0{fill:#271455;}
	.st1{clip-path:url(#SVGID_2_);fill:#271455;}
	.st2{clip-path:url(#SVGID_4_);fill:#271455;}
</style>
<g>
	<polygon class="st0" points="105.4,77.7 144.7,117 144.7,77.7 	"/>
	<polygon class="st0" points="111.2,83.4 139,111.2 111.2,139 	"/>
	<polygon class="st0" points="111.2,83.4 111.2,139 83.4,111.2 	"/>
	<polygon class="st0" points="111.2,139 83.4,166.8 55.6,139 	"/>
	<polygon class="st0" points="111.2,139 55.6,139 83.4,111.2 	"/>
	<polygon class="st0" points="55.6,194.6 27.8,166.8 55.6,139 	"/>
	<polygon class="st0" points="55.6,194.6 83.4,166.8 111.2,194.6 	"/>
	<polygon class="st0" points="55.6,194.6 55.6,139 83.4,166.8 	"/>
	<polygon class="st0" points="0,139 27.8,111.2 55.6,139 	"/>
	<polygon class="st0" points="83.4,55.7 55.6,27.9 83.4,0.1 	"/>
	<polygon class="st0" points="27.8,55.7 55.6,27.9 83.4,55.7 	"/>
	<polygon class="st0" points="27.8,55.7 83.4,55.7 55.6,83.4 	"/>
	<polygon class="st0" points="27.8,55.7 55.6,83.4 27.8,111.2 	"/>
	<polygon class="st0" points="27.8,55.7 27.8,111.2 0,83.4 	"/>
	<polygon class="st0" points="27.8,0.1 83.4,0.1 55.6,27.9 	"/>
	<polygon class="st0" points="0,83.4 27.8,111.2 0,139 	"/>
	<polygon class="st0" points="0,139 55.6,139 27.8,166.8 	"/>
	<polygon class="st0" points="111.2,194.6 83.4,222.4 55.6,194.6 	"/>
	<polygon class="st0" points="222.3,194.6 194.5,166.8 222.3,139 	"/>
	<polygon class="st0" points="166.7,139 222.3,139 194.5,166.8 	"/>
	<polygon class="st0" points="138.9,166.8 166.7,139 194.5,166.8 	"/>
	<polygon class="st0" points="138.9,166.8 194.5,166.8 166.7,194.6 	"/>
	<polygon class="st0" points="139,222.4 111.2,194.6 139,166.8 	"/>
	<polygon class="st0" points="139,222.4 139,166.8 166.7,194.6 	"/>
	<polygon class="st0" points="105.4,79.1 144.7,118.4 144.7,79.1 	"/>
	<polygon class="st0" points="111.2,84.9 139,112.7 111.2,140.5 	"/>
	<polygon class="st0" points="111.2,84.9 111.2,140.5 83.4,112.7 	"/>
	<polygon class="st0" points="111.2,140.5 83.4,168.3 55.6,140.5 	"/>
	<polygon class="st0" points="111.2,140.5 55.6,140.5 83.4,112.7 	"/>
	<polygon class="st0" points="55.6,196 27.8,168.3 55.6,140.5 	"/>
	<polygon class="st0" points="55.6,196.1 83.4,168.3 111.2,196.1 	"/>
	<polygon class="st0" points="55.6,196 55.6,140.5 83.4,168.3 	"/>
	<polygon class="st0" points="0,140.5 27.8,112.7 55.6,140.5 	"/>
	<polygon class="st0" points="83.4,57.1 55.6,29.3 83.4,1.5 	"/>
	<polygon class="st0" points="27.8,57.1 55.6,29.3 83.4,57.1 	"/>
	<polygon class="st0" points="27.8,57.1 83.4,57.1 55.6,84.9 	"/>
	<polygon class="st0" points="27.8,57.1 55.6,84.9 27.8,112.7 	"/>
	<polygon class="st0" points="27.8,57.1 27.8,112.7 0,84.9 	"/>
	<polygon class="st0" points="27.8,1.5 83.4,1.5 55.6,29.3 	"/>
	<polygon class="st0" points="0,84.9 27.8,112.7 0,140.5 	"/>
	<polygon class="st0" points="0,140.5 55.6,140.5 27.8,168.3 	"/>
	<polygon class="st0" points="111.2,196 83.4,223.8 55.6,196.1 	"/>
	<polygon class="st0" points="222.3,196.1 194.5,168.3 222.3,140.5 	"/>
	<polygon class="st0" points="166.7,140.5 222.3,140.5 194.5,168.3 	"/>
	<polygon class="st0" points="138.9,168.3 166.7,140.5 194.5,168.3 	"/>
	<polygon class="st0" points="138.9,168.3 194.5,168.3 166.7,196.1 	"/>
	<polygon class="st0" points="139,223.8 111.2,196 139,168.3 	"/>
	<polygon class="st0" points="139,223.8 139,168.3 166.7,196 	"/>
	<polygon class="st0" points="139,224.4 83.4,224.4 111.2,196.6 	"/>
	<polygon class="st0" points="89.2,218 89.2,218 89.1,218.1 	"/>
	<path class="st0" d="M89.2,218c-3.9,0-7.8,0.1-11.5,0.1l0.1,0.1C81.5,218.2,85.3,218.1,89.2,218L89.2,218"/>
	<polygon class="st0" points="133.1,218 133.2,218.1 133.2,218.1 133.1,218 	"/>
	<path class="st0" d="M133.1,218L133.1,218c2,0.1,3.9,0.1,5.8,0.2v-0.1C137,218,135.1,218,133.1,218"/>
	<path class="st0" d="M139,218.1L139,218.1c1.9,0.1,3.8,0.1,5.6,0.2l0.1-0.1C142.8,218.1,140.9,218.1,139,218.1"/>
	<polygon class="st0" points="89.1,218.1 89.1,218.1 89,218.2 	"/>
	<path class="st0" d="M89.1,218.1c-3.9,0-7.6,0.1-11.4,0.1l0.1,0.1C81.5,218.3,85.2,218.2,89.1,218.1L89.1,218.1"/>
	<polygon class="st0" points="133.2,218.1 133.3,218.2 133.3,218.2 133.2,218.1 	"/>
	<path class="st0" d="M133.2,218.1L133.2,218.1c2,0.1,3.9,0.1,5.7,0.1v-0.1C137.1,218.1,135.1,218.1,133.2,218.1"/>
	<path class="st0" d="M139,218.2L139,218.2c1.9,0.1,3.7,0.1,5.5,0.2l0.1-0.1C142.7,218.2,140.8,218.2,139,218.2"/>
	<polyline class="st0" points="89,218.2 89,218.2 89,218.3 89,218.3 89,218.2 	"/>
	<path class="st0" d="M89,218.2c-3.8,0-7.5,0.1-11.2,0.1l0.1,0.1C81.5,218.3,85.2,218.3,89,218.2L89,218.2"/>
	<polygon class="st0" points="133.3,218.2 133.4,218.3 133.4,218.3 133.3,218.2 	"/>
	<path class="st0" d="M133.3,218.2L133.3,218.2c2,0.1,3.8,0.1,5.7,0.1v-0.1C137.1,218.2,135.2,218.2,133.3,218.2"/>
	<path class="st0" d="M139,218.2L139,218.2c1.8,0.1,3.6,0.1,5.4,0.2l0.1-0.1C142.6,218.3,140.8,218.3,139,218.2"/>
	<polyline class="st0" points="89,218.3 89,218.3 88.9,218.3 89,218.3 	"/>
	<path class="st0" d="M89,218.3c-3.7,0-7.4,0.1-11,0.1l0.1,0.1C81.6,218.4,85.2,218.4,89,218.3L89,218.3"/>
	<polygon class="st0" points="133.4,218.3 133.5,218.3 133.5,218.3 133.4,218.3 	"/>
	<path class="st0" d="M133.4,218.3L133.4,218.3c1.9,0.1,3.8,0.1,5.6,0.2v-0.1C137.1,218.3,135.3,218.3,133.4,218.3"/>
	<path class="st0" d="M139,218.3L139,218.3c1.8,0.1,3.6,0.1,5.3,0.2l0.1-0.1C142.6,218.4,140.8,218.3,139,218.3"/>
	<polygon class="st0" points="88.9,218.3 88.9,218.3 88.8,218.4 88.8,218.4 	"/>
	<path class="st0" d="M88.9,218.3c-3.7,0-7.3,0.1-10.9,0.1l0.1,0.1C81.6,218.5,85.2,218.5,88.9,218.3L88.9,218.3"/>
	<polygon class="st0" points="133.5,218.3 133.5,218.4 133.5,218.4 133.5,218.3 	"/>
	<path class="st0" d="M133.5,218.3L133.5,218.3c1.9,0.1,3.7,0.1,5.5,0.2v-0.1C137.1,218.4,135.3,218.4,133.5,218.3"/>
	<path class="st0" d="M139,218.4L139,218.4c1.8,0.1,3.5,0.1,5.3,0.2l0.1-0.1C142.5,218.5,140.8,218.4,139,218.4"/>
	<polygon class="st0" points="88.8,218.4 88.8,218.4 88.7,218.5 88.7,218.5 	"/>
	<path class="st0" d="M88.8,218.4c-3.6,0-7.2,0.1-10.7,0.1l0.1,0.1C81.6,218.6,85.1,218.6,88.8,218.4L88.8,218.4"/>
	<polygon class="st0" points="133.5,218.4 133.6,218.5 133.6,218.5 133.5,218.4 	"/>
	<path class="st0" d="M133.5,218.4L133.5,218.4c1.9,0.1,3.6,0.1,5.4,0.2v-0.1C137.2,218.5,135.4,218.5,133.5,218.4"/>
	<path class="st0" d="M139,218.5L139,218.5c1.7,0.1,3.5,0.1,5.2,0.2l0.1-0.1C142.5,218.6,140.7,218.5,139,218.5"/>
	<polygon class="st0" points="88.7,218.5 88.7,218.5 88.6,218.6 88.6,218.6 	"/>
	<path class="st0" d="M88.7,218.5c-3.6,0-7.1,0.1-10.5,0.1l0.1,0.1C81.7,218.7,85.1,218.6,88.7,218.5L88.7,218.5"/>
	<polygon class="st0" points="133.6,218.5 133.7,218.6 133.7,218.6 133.6,218.5 	"/>
	<path class="st0" d="M133.6,218.5L133.6,218.5c1.8,0.1,3.6,0.1,5.3,0.2v-0.1C137.2,218.6,135.4,218.5,133.6,218.5"/>
	<path class="st0" d="M139,218.6L139,218.6c1.7,0.1,3.4,0.1,5.1,0.2l0.1-0.1C142.4,218.6,140.7,218.6,139,218.6"/>
	<polygon class="st0" points="88.6,218.6 88.6,218.6 88.5,218.7 	"/>
	<path class="st0" d="M88.6,218.6c-3.5,0-7,0.1-10.3,0.1l0.1,0.1C81.7,218.8,85.1,218.7,88.6,218.6L88.6,218.6"/>
	<polygon class="st0" points="133.7,218.6 133.8,218.7 133.8,218.7 133.7,218.6 	"/>
	<path class="st0" d="M133.7,218.6L133.7,218.6c1.8,0.1,3.5,0.1,5.2,0.2v-0.1C137.2,218.6,135.5,218.6,133.7,218.6"/>
	<path class="st0" d="M139,218.7L139,218.7c1.7,0.1,3.3,0.1,5,0.2l0.1-0.1C142.4,218.7,140.7,218.7,139,218.7"/>
	<polygon class="st0" points="88.5,218.7 88.5,218.7 88.4,218.8 	"/>
	<path class="st0" d="M88.5,218.7c-3.5,0-6.8,0.1-10.2,0.2l0.1,0.1C81.7,218.9,85,218.8,88.5,218.7L88.5,218.7"/>
	<polygon class="st0" points="133.8,218.7 133.9,218.8 133.9,218.8 133.8,218.7 	"/>
	<path class="st0" d="M133.8,218.7L133.8,218.7c1.8,0.1,3.5,0.1,5.1,0.2v-0.1C137.3,218.7,135.5,218.7,133.8,218.7"/>
	<path class="st0" d="M139,218.8L139,218.8c1.7,0.1,3.3,0.1,4.9,0.2l0.1-0.1C142.3,218.8,140.6,218.8,139,218.8"/>
	<polygon class="st0" points="88.4,218.8 88.4,218.8 88.3,218.9 88.4,218.9 	"/>
	<path class="st0" d="M88.4,218.8c-3.4,0-6.7,0.1-10,0.2l0.1,0.1C81.7,219,85,218.9,88.4,218.8L88.4,218.8"/>
	<polygon class="st0" points="133.9,218.8 134,218.9 134,218.9 133.9,218.8 	"/>
	<path class="st0" d="M133.9,218.8L133.9,218.8c1.8,0.1,3.4,0.1,5.1,0.2v-0.1C137.3,218.8,135.6,218.8,133.9,218.8"/>
	<path class="st0" d="M139,218.8L139,218.8c1.6,0.1,3.2,0.1,4.8,0.2l0.1-0.1C142.2,218.9,140.6,218.9,139,218.8"/>
	<polygon class="st0" points="88.4,218.9 88.4,218.9 88.3,218.9 88.3,218.9 	"/>
	<path class="st0" d="M88.3,218.9c-3.3,0-6.6,0.1-9.8,0.2l0.1,0.1C81.8,219,85,219,88.3,218.9L88.3,218.9"/>
	<polygon class="st0" points="134,218.9 134.1,218.9 134.1,218.9 134,218.9 	"/>
	<path class="st0" d="M134,218.9L134,218.9c1.7,0.1,3.4,0.1,5,0.2v-0.1C137.3,218.9,135.7,218.9,134,218.9"/>
	<path class="st0" d="M139,218.9L139,218.9c1.6,0.1,3.2,0.1,4.7,0.2l0.1-0.1C142.2,219,140.6,219,139,218.9"/>
	<polygon class="st0" points="88.3,219 88.3,219 88.2,219 	"/>
	<path class="st0" d="M88.3,219c-3.3,0-6.5,0.1-9.6,0.2l0.1,0.1C81.8,219.1,85,219.1,88.3,219L88.3,219"/>
	<polygon class="st0" points="134.1,219 134.2,219 134.2,219 134.1,219 	"/>
	<path class="st0" d="M134.1,219L134.1,219c1.7,0.1,3.3,0.1,4.9,0.2V219C137.3,219,135.7,219,134.1,219"/>
	<path class="st0" d="M139,219L139,219c1.6,0.1,3.1,0.1,4.6,0.2l0.1-0.1C142.1,219.1,140.5,219.1,139,219"/>
	<polygon class="st0" points="88.2,219 88.2,219 88.1,219.1 	"/>
	<path class="st0" d="M88.2,219c-3.2,0-6.4,0.1-9.5,0.2l0.1,0.1C81.8,219.2,84.9,219.2,88.2,219L88.2,219"/>
	<polygon class="st0" points="134.2,219 134.2,219.1 134.2,219.1 134.2,219 	"/>
	<path class="st0" d="M134.2,219L134.2,219c1.7,0.1,3.2,0.1,4.8,0.2v-0.1C137.4,219.1,135.8,219.1,134.2,219"/>
	<path class="st0" d="M139,219.1L139,219.1c1.5,0.1,3,0.1,4.5,0.2l0.1-0.1C142.1,219.2,140.5,219.1,139,219.1"/>
	<polygon class="st0" points="88.1,219.1 88.1,219.1 88,219.2 88,219.2 	"/>
	<path class="st0" d="M88.1,219.1c-3.2,0-6.2,0.1-9.3,0.2l0.1,0.1C81.9,219.3,84.9,219.3,88.1,219.1L88.1,219.1"/>
	<polygon class="st0" points="134.2,219.1 134.3,219.2 134.3,219.2 134.2,219.1 	"/>
	<path class="st0" d="M134.2,219.1L134.2,219.1c1.6,0.1,3.2,0.1,4.7,0.2v-0.1C137.4,219.2,135.8,219.2,134.2,219.1"/>
	<path class="st0" d="M139,219.2L139,219.2c1.5,0.1,3,0.1,4.5,0.2l0.1-0.1C142,219.3,140.5,219.2,139,219.2"/>
	<polygon class="st0" points="88,219.2 88,219.2 87.9,219.3 	"/>
	<path class="st0" d="M88,219.2c-3.1,0-6.1,0.1-9.1,0.2l0.1,0.1C81.9,219.4,84.9,219.4,88,219.2L88,219.2"/>
	<polygon class="st0" points="134.3,219.2 134.4,219.3 134.4,219.3 134.3,219.2 	"/>
	<path class="st0" d="M134.3,219.2L134.3,219.2c1.6,0.1,3.1,0.1,4.6,0.2v-0.1C137.4,219.3,135.9,219.2,134.3,219.2"/>
	<path class="st0" d="M139,219.3L139,219.3c1.5,0.1,2.9,0.1,4.4,0.2l0.1-0.1C141.9,219.3,140.5,219.3,139,219.3"/>
	<polygon class="st0" points="87.9,219.3 87.9,219.3 87.8,219.4 	"/>
	<path class="st0" d="M87.9,219.3c-3,0-6,0.1-8.9,0.2l0.1,0.1C81.9,219.5,84.8,219.4,87.9,219.3L87.9,219.3"/>
	<polygon class="st0" points="134.4,219.3 134.5,219.4 134.5,219.4 134.4,219.3 	"/>
	<path class="st0" d="M134.4,219.3L134.4,219.3c1.6,0.1,3.1,0.1,4.5,0.2v-0.1C137.5,219.4,136,219.3,134.4,219.3"/>
	<path class="st0" d="M139,219.4L139,219.4c1.4,0.1,2.9,0.1,4.3,0.2l0.1-0.1C141.9,219.4,140.4,219.4,139,219.4"/>
	<polygon class="st0" points="87.8,219.4 87.8,219.4 87.7,219.5 	"/>
	<path class="st0" d="M87.8,219.4c-3,0-5.9,0.1-8.7,0.2l0.1,0.1C82,219.6,84.8,219.5,87.8,219.4L87.8,219.4"/>
	<polygon class="st0" points="134.5,219.4 134.6,219.5 134.6,219.5 134.5,219.4 	"/>
	<path class="st0" d="M134.5,219.4L134.5,219.4c1.6,0.1,3,0.1,4.4,0.2v-0.1C137.5,219.4,136,219.4,134.5,219.4"/>
	<path class="st0" d="M139,219.5L139,219.5c1.4,0.1,2.8,0.1,4.2,0.2l0.1-0.1C141.8,219.5,140.4,219.5,139,219.5"/>
	<polygon class="st0" points="87.7,219.5 87.7,219.5 87.6,219.6 	"/>
	<path class="st0" d="M87.7,219.5c-2.9,0-5.8,0.1-8.5,0.2l0.1,0.1C82,219.7,84.8,219.6,87.7,219.5L87.7,219.5"/>
	<polygon class="st0" points="134.6,219.5 134.7,219.6 134.7,219.6 134.6,219.5 	"/>
	<path class="st0" d="M134.6,219.5L134.6,219.5c1.5,0.1,3,0.1,4.4,0.2v-0.1C137.5,219.5,136.1,219.5,134.6,219.5"/>
	<path class="st0" d="M139,219.6L139,219.6c1.4,0.1,2.7,0.2,4.1,0.2l0.1-0.1C141.8,219.6,140.4,219.6,139,219.6"/>
	<polyline class="st0" points="87.6,219.6 87.6,219.6 87.6,219.7 87.6,219.7 87.6,219.6 	"/>
	<path class="st0" d="M87.6,219.6c-2.9,0.1-5.7,0.1-8.4,0.2l0.1,0.1C82,219.8,84.8,219.7,87.6,219.6L87.6,219.6"/>
	<polygon class="st0" points="134.7,219.6 134.8,219.7 134.8,219.7 134.7,219.6 	"/>
	<path class="st0" d="M134.7,219.6L134.7,219.6c1.5,0.1,2.9,0.1,4.3,0.2v-0.1C137.6,219.6,136.1,219.6,134.7,219.6"/>
	<path class="st0" d="M139,219.7L139,219.7c1.4,0.1,2.7,0.2,4,0.2l0.1-0.1C141.7,219.7,140.3,219.7,139,219.7"/>
	<polyline class="st0" points="87.6,219.7 87.6,219.7 87.5,219.8 87.6,219.7 	"/>
	<path class="st0" d="M87.6,219.7c-2.8,0-5.5,0.1-8.2,0.2l0.1,0.1C82.1,219.9,84.7,219.8,87.6,219.7L87.6,219.7"/>
	<polygon class="st0" points="134.8,219.7 134.9,219.8 134.9,219.8 134.8,219.7 	"/>
	<path class="st0" d="M134.8,219.7L134.8,219.7c1.5,0.1,2.8,0.1,4.2,0.2v-0.1C137.6,219.7,136.2,219.7,134.8,219.7"/>
	<path class="st0" d="M139,219.7L139,219.7c1.3,0.1,2.6,0.2,3.9,0.2l0.1-0.1C141.6,219.8,140.3,219.8,139,219.7"/>
	<polygon class="st0" points="87.5,219.8 87.5,219.8 87.4,219.8 	"/>
	<path class="st0" d="M87.5,219.8c-2.7,0-5.4,0.1-8,0.2l0.1,0.1C82.1,220,84.7,219.9,87.5,219.8L87.5,219.8"/>
	<path class="st0" d="M134.9,219.8L134.9,219.8C135,219.9,135,219.9,134.9,219.8L134.9,219.8L134.9,219.8"/>
	<path class="st0" d="M134.9,219.8L134.9,219.8c1.4,0.1,2.8,0.1,4.1,0.2v-0.1C137.6,219.8,136.3,219.8,134.9,219.8"/>
	<path class="st0" d="M139,219.8L139,219.8c1.3,0.1,2.6,0.2,3.8,0.2l0.1-0.1C141.6,219.9,140.3,219.9,139,219.8"/>
	<polygon class="st0" points="87.4,219.9 87.4,219.9 87.3,219.9 	"/>
	<path class="st0" d="M87.4,219.9c-2.7,0.1-5.3,0.1-7.8,0.2l0.1,0.1C82.1,220.1,84.7,220,87.4,219.9L87.4,219.9"/>
	<polyline class="st0" points="135,219.9 135.1,219.9 135.1,219.9 135,219.9 135,219.9 	"/>
	<path class="st0" d="M135,219.9L135,219.9c1.4,0.1,2.7,0.1,4,0.2v-0.1C137.6,219.9,136.3,219.9,135,219.9"/>
	<path class="st0" d="M139,219.9L139,219.9c1.3,0.1,2.5,0.2,3.7,0.2l0.1-0.1C141.5,220,140.2,220,139,219.9"/>
	<polygon class="st0" points="87.3,219.9 87.3,219.9 87.2,220 	"/>
	<path class="st0" d="M87.3,219.9c-2.6,0.1-5.2,0.1-7.6,0.2l0.1,0.1C82.1,220.2,84.6,220.1,87.3,219.9L87.3,219.9"/>
	<polygon class="st0" points="135.1,219.9 135.2,220 135.2,220 135.1,219.9 	"/>
	<path class="st0" d="M135.1,219.9L135.1,219.9c1.4,0.1,2.6,0.2,3.9,0.2V220C137.7,220,136.4,220,135.1,219.9"/>
	<path class="st0" d="M139,220L139,220c1.2,0.1,2.4,0.2,3.6,0.2l0.1-0.1C141.5,220.1,140.2,220.1,139,220"/>
	<polygon class="st0" points="87.2,220 87.2,220 87.1,220.1 	"/>
	<path class="st0" d="M87.2,220c-2.6,0.1-5,0.1-7.4,0.2l0.1,0.1C82.2,220.3,84.6,220.2,87.2,220L87.2,220"/>
	<polygon class="st0" points="135.2,220 135.2,220.1 135.3,220.1 135.2,220 	"/>
	<path class="st0" d="M135.2,220L135.2,220c1.4,0.1,2.6,0.2,3.8,0.2v-0.1C137.7,220.1,136.4,220.1,135.2,220"/>
	<path class="st0" d="M139,220.1L139,220.1c1.2,0.1,2.4,0.2,3.5,0.2l0.1-0.1C141.4,220.2,140.2,220.2,139,220.1"/>
	<polygon class="st0" points="87.1,220.1 87.1,220.1 87,220.2 	"/>
	<path class="st0" d="M87.1,220.1c-2.5,0.1-4.9,0.1-7.2,0.2l0.1,0.1C82.2,220.4,84.6,220.3,87.1,220.1L87.1,220.1"/>
	<polygon class="st0" points="135.2,220.1 135.3,220.2 135.3,220.2 135.3,220.1 	"/>
	<path class="st0" d="M135.3,220.1L135.3,220.1c1.3,0.1,2.5,0.2,3.7,0.2v-0.1C137.7,220.2,136.5,220.2,135.3,220.1"/>
	<path class="st0" d="M139,220.2L139,220.2c1.2,0.1,2.3,0.2,3.4,0.2l0.1-0.1C141.3,220.3,140.1,220.3,139,220.2"/>
	<polygon class="st0" points="87,220.2 87,220.2 86.9,220.3 	"/>
	<path class="st0" d="M87,220.2c-2.4,0.1-4.8,0.1-7,0.2l0.1,0.1C82.2,220.5,84.5,220.4,87,220.2L87,220.2"/>
	<polygon class="st0" points="135.3,220.2 135.4,220.3 135.4,220.3 135.3,220.2 	"/>
	<path class="st0" d="M135.3,220.2L135.3,220.2c1.3,0.1,2.5,0.2,3.6,0.2v-0.1C137.8,220.3,136.6,220.3,135.3,220.2"/>
	<path class="st0" d="M139,220.3L139,220.3c1.1,0.1,2.2,0.2,3.3,0.2l0.1-0.1C141.3,220.4,140.1,220.4,139,220.3"/>
	<polygon class="st0" points="86.9,220.3 86.9,220.3 86.8,220.4 	"/>
	<path class="st0" d="M86.9,220.3c-2.4,0.1-4.6,0.1-6.8,0.2l0.1,0.1c2.1-0.1,4.3-0.1,6.6-0.2L86.9,220.3"/>
	<polygon class="st0" points="135.4,220.3 135.5,220.4 135.5,220.4 135.4,220.3 	"/>
	<path class="st0" d="M135.4,220.3L135.4,220.3c1.3,0.1,2.4,0.2,3.5,0.2v-0.1C137.8,220.4,136.6,220.4,135.4,220.3"/>
	<path class="st0" d="M139,220.4v0.1c1.1,0,2.2,0.1,3.2,0.1l0.1-0.1C141.2,220.5,140.1,220.5,139,220.4"/>
	<polygon class="st0" points="86.8,220.4 86.8,220.4 86.7,220.5 86.7,220.5 	"/>
	<path class="st0" d="M86.8,220.4c-2.3,0.1-4.5,0.1-6.6,0.2l0.1,0.1c2-0.1,4.2-0.2,6.4-0.2L86.8,220.4"/>
	<polygon class="st0" points="135.5,220.4 135.6,220.5 135.7,220.5 135.5,220.4 	"/>
	<path class="st0" d="M135.5,220.4l0.1,0.1c1.1,0,2.2,0.1,3.3,0.1v-0.1C137.8,220.5,136.7,220.5,135.5,220.4"/>
	<path class="st0" d="M139,220.5v0.1c1.1,0,2.1,0.1,3.1,0.1l0.1-0.1C141.1,220.6,140,220.6,139,220.5"/>
	<polygon class="st0" points="86.7,220.5 86.7,220.5 86.6,220.6 	"/>
	<path class="st0" d="M86.7,220.5c-2.2,0.1-4.4,0.1-6.4,0.2l0.1,0.1c2-0.1,4-0.2,6.2-0.2L86.7,220.5"/>
	<polygon class="st0" points="135.6,220.5 135.8,220.6 135.8,220.6 135.6,220.5 	"/>
	<path class="st0" d="M135.6,220.5l0.1,0.1c1.1,0,2.2,0.1,3.2,0.1v-0.1C137.9,220.6,136.8,220.6,135.6,220.5"/>
	<path class="st0" d="M139,220.6v0.1c1,0,2,0.1,3,0.1l0.1-0.1C141,220.7,140,220.7,139,220.6"/>
	<polygon class="st0" points="86.6,220.6 86.6,220.6 86.5,220.7 	"/>
	<path class="st0" d="M86.6,220.6c-2.2,0.1-4.2,0.1-6.2,0.2l0.1,0.1c1.9-0.1,3.9-0.2,6-0.2L86.6,220.6"/>
	<polygon class="st0" points="135.8,220.6 135.9,220.7 135.9,220.7 135.8,220.6 	"/>
	<path class="st0" d="M135.8,220.6l0.1,0.1c1.1,0,2.1,0.1,3.1,0.1v-0.1C137.9,220.7,136.9,220.7,135.8,220.6"/>
	<path class="st0" d="M139,220.7v0.1c1,0,1.9,0.1,2.9,0.1l0.1-0.1C141,220.8,140,220.8,139,220.7"/>
	<polygon class="st0" points="86.5,220.7 86.5,220.7 86.4,220.9 	"/>
	<path class="st0" d="M86.5,220.7c-2.1,0.1-4.1,0.1-6,0.2l0.1,0.1c1.8-0.1,3.7-0.2,5.7-0.2L86.5,220.7"/>
	<polygon class="st0" points="135.9,220.7 136,220.9 136,220.9 135.9,220.7 	"/>
	<path class="st0" d="M135.9,220.7l0.1,0.1c1,0,2,0.1,3,0.1v-0.1C138,220.8,136.9,220.8,135.9,220.7"/>
	<path class="st0" d="M139,220.9v0.1c0.9,0,1.9,0.1,2.7,0.1l0.1-0.1C140.9,220.9,139.9,220.9,139,220.9"/>
	<polygon class="st0" points="86.4,220.9 86.4,220.9 86.2,221 	"/>
	<path class="st0" d="M86.4,220.9c-2,0.1-3.9,0.2-5.7,0.2l0.1,0.1c1.7-0.1,3.5-0.2,5.5-0.3L86.4,220.9"/>
	<polygon class="st0" points="136,220.9 136.1,221 136.1,221 136,220.9 	"/>
	<path class="st0" d="M136,220.9l0.1,0.1c1,0,1.9,0.1,2.9,0.1V221C138,220.9,137,220.9,136,220.9"/>
	<path class="st0" d="M139,221v0.1c0.9,0,1.8,0.1,2.6,0.1l0.1-0.1C140.8,221.1,139.9,221,139,221"/>
	<polygon class="st0" points="86.2,221 86.2,221 86.1,221.1 	"/>
	<path class="st0" d="M86.2,221c-2,0.1-3.8,0.2-5.5,0.3l0.1,0.1c1.6-0.1,3.3-0.2,5.2-0.3L86.2,221"/>
	<polygon class="st0" points="136.1,221 136.2,221.1 136.2,221.1 136.1,221 	"/>
	<path class="st0" d="M136.1,221l0.1,0.1c0.9,0,1.9,0.1,2.7,0.1v-0.1C138,221.1,137.1,221,136.1,221"/>
	<path class="st0" d="M139,221.1v0.1c0.9,0,1.7,0.1,2.5,0.1l0.1-0.1C140.7,221.2,139.9,221.1,139,221.1"/>
	<polygon class="st0" points="86.1,221.1 86.1,221.1 86,221.2 	"/>
	<path class="st0" d="M86.1,221.1c-1.9,0.1-3.6,0.2-5.2,0.3l0.2,0.2c1.4-0.1,3.1-0.2,4.9-0.3L86.1,221.1"/>
	<polygon class="st0" points="136.2,221.1 136.4,221.2 136.4,221.2 136.2,221.1 	"/>
	<path class="st0" d="M136.2,221.1l0.1,0.1c0.9,0,1.8,0.1,2.6,0.1v-0.2C138.1,221.2,137.2,221.1,136.2,221.1"/>
	<path class="st0" d="M139,221.2v0.2c0.8,0,1.6,0.1,2.3,0.2l0.2-0.2C140.6,221.3,139.8,221.3,139,221.2"/>
	<polygon class="st0" points="86,221.2 86,221.2 85.8,221.4 	"/>
	<path class="st0" d="M83.3,223.8L83.3,223.8l0.1,0L83.3,223.8 M86,221.2c-1.8,0.1-3.4,0.2-4.9,0.3l0.2,0.2c1.3-0.1,2.8-0.2,4.6-0.3
		L86,221.2"/>
	<polygon class="st0" points="136.4,221.2 136.5,221.4 136.5,221.4 136.4,221.2 	"/>
	<path class="st0" d="M139,223.8L139,223.8L139,223.8L139,223.8 M136.4,221.2l0.2,0.2c0.9,0.1,1.7,0.1,2.4,0.2v-0.2
		C138.1,221.3,137.3,221.3,136.4,221.2"/>
	<path class="st0" d="M139,223.8L139,223.8L139,223.8L139,223.8 M139,221.4v0.2c0.8,0.1,1.5,0.1,2.1,0.2l0.2-0.2
		C140.5,221.5,139.8,221.4,139,221.4"/>
	<polygon class="st0" points="85.8,221.4 85.8,221.4 85.6,221.6 	"/>
	<path class="st0" d="M82.9,223.4l0.4,0.4l0.1,0l0.3-0.3C83.5,223.5,83.2,223.4,82.9,223.4 M85.8,221.4c-1.7,0.1-3.3,0.2-4.5,0.3
		l0.3,0.3c1-0.1,2.4-0.3,4.1-0.4L85.8,221.4"/>
	<polygon class="st0" points="136.5,221.4 136.7,221.6 136.7,221.6 136.5,221.4 	"/>
	<path class="st0" d="M139,223.4c-0.1,0-0.2,0-0.4,0l0.3,0.3l0,0V223.4 M136.5,221.4l0.2,0.2c0.8,0.1,1.6,0.1,2.3,0.2v-0.2
		C138.2,221.5,137.4,221.5,136.5,221.4"/>
	<path class="st0" d="M139.4,223.4c-0.1,0-0.3,0-0.4,0v0.3l0.1,0L139.4,223.4 M139,221.6v0.2c0.7,0.1,1.3,0.1,1.8,0.2l0.3-0.3
		C140.4,221.7,139.7,221.6,139,221.6"/>
	<polygon class="st0" points="85.6,221.6 85.6,221.6 85.4,221.8 	"/>
	<path class="st0" d="M85.6,221.6c-1.7,0.1-3.1,0.3-4.1,0.4l1.4,1.4c0.3,0,0.5,0.1,0.8,0.1l0.4-0.4c-1.2-0.2-1.9-0.4-1.9-0.6
		c0-0.3,1.2-0.5,3.2-0.7L85.6,221.6"/>
	<polygon class="st0" points="136.7,221.6 136.9,221.8 136.9,221.8 136.7,221.6 	"/>
	<path class="st0" d="M139,223c-0.2,0-0.5,0.1-0.7,0.1l0.4,0.4c0.1,0,0.2,0,0.4,0V223 M136.7,221.6l0.2,0.2c0.8,0.1,1.5,0.2,2,0.3
		v-0.3C138.3,221.7,137.5,221.6,136.7,221.6"/>
	<path class="st0" d="M139,221.8v0.3c0.8,0.1,1.2,0.3,1.2,0.5c0,0.2-0.4,0.3-1.2,0.5v0.4c0.2,0,0.3,0,0.4,0l1.4-1.4
		C140.3,221.9,139.7,221.8,139,221.8"/>
	<g>
		<defs>
			<path id="SVGID_1_" d="M84.1,223.1l0.7-0.7L84.1,223.1z"/>
		</defs>
		<use xlink:href="#SVGID_1_"  style="overflow:visible;fill:#271455;"/>
		<clipPath id="SVGID_2_">
			<use xlink:href="#SVGID_1_"  style="overflow:visible;"/>
		</clipPath>
		<rect x="84.1" y="222.4" class="st1" width="0.7" height="0.7"/>
	</g>
	<g>
		<defs>
			<polygon id="SVGID_3_" points="137.5,222.4 138.2,223.1 138.2,223.1 137.5,222.4 			"/>
		</defs>
		<use xlink:href="#SVGID_3_"  style="overflow:visible;fill:#271455;"/>
		<clipPath id="SVGID_4_">
			<use xlink:href="#SVGID_3_"  style="overflow:visible;"/>
		</clipPath>
		<rect x="137.5" y="222.4" class="st2" width="0.7" height="0.7"/>
	</g>
	<polygon class="st0" points="368.3,87.3 303.7,87.3 303.7,134.3 379.2,134.3 379.2,155.5 276.3,155.5 276.3,2.8 378.5,2.8 
		378.5,24.2 303.7,24.2 303.7,66.4 368.3,66.4 	"/>
	<path class="st0" d="M401.5,155.5V2.8H448c13.9,0,26.3,3,37,9c10.8,6,19.1,14.5,25,25.6c5.9,11,8.9,23.7,8.9,38V83
		c0,14.5-3,27.2-8.9,38.2c-5.9,11-14.4,19.4-25.4,25.4c-11,5.9-23.6,8.9-37.8,8.9H401.5z M428.9,24.2v110.1h17.8
		c14.4,0,25.4-4.3,33-13.1c7.7-8.7,11.6-21.2,11.7-37.5v-8.5c0-16.6-3.7-29.2-11.1-38c-7.4-8.7-18.2-13.1-32.3-13.1H428.9z"/>
	<path class="st0" d="M666.9,135.7c-5.7,7.2-13.6,12.7-23.7,16.4c-10.1,3.7-21.6,5.6-34.4,5.6c-13.2,0-24.9-2.9-35-8.7
		c-10.2-5.8-18-14.1-23.5-24.9c-5.5-10.8-8.4-23.4-8.6-37.8v-12c0-23.1,5.7-41.1,17.1-54c11.4-13,27.3-19.4,47.7-19.4
		c17.5,0,31.4,4.2,41.7,12.6c10.3,8.4,16.5,20.5,18.6,36.3H640c-3-18.4-14-27.6-33-27.6c-12.3,0-21.6,4.3-28,12.8
		c-6.4,8.6-9.7,21.1-9.9,37.7v11.7c0,16.5,3.6,29.3,10.8,38.4c7.2,9.1,17.1,13.7,29.9,13.7c14,0,23.9-3.1,29.8-9.2V97.3h-32.4V77.2
		h59.7V135.7z"/>
	<path class="st0" d="M785.1,119.9h-61l-12.8,35.5h-28.4L742.4,2.8h24.6l59.6,152.6H798L785.1,119.9z M731.8,98.5h45.6l-22.8-63.3
		L731.8,98.5z"/>
	<path class="st0" d="M902.2,96.8h-30.5v58.7h-27.4V2.8h55.4c18.2,0,32.2,4,42.1,11.9c9.9,7.9,14.8,19.3,14.8,34.3
		c0,10.2-2.5,18.8-7.6,25.7c-5.1,6.9-12.2,12.2-21.3,15.9l35.4,63.6v1.4h-29.3L902.2,96.8z M871.7,75.4h28.1
		c9.2,0,16.4-2.3,21.6-6.8c5.2-4.5,7.8-10.7,7.8-18.5c0-8.2-2.4-14.5-7.2-19c-4.8-4.5-12-6.8-21.5-6.9h-28.9V75.4z"/>
	<path class="st0" d="M982.6,155.5V2.8h46.5c13.9,0,26.3,3,37,9c10.8,6,19.1,14.5,25,25.6c5.9,11,8.9,23.7,8.9,38V83
		c0,14.5-3,27.2-8.9,38.2c-6,11-14.4,19.4-25.4,25.4c-11,5.9-23.6,8.9-37.8,8.9H982.6z M1009.9,24.2v110.1h17.8
		c14.3,0,25.4-4.3,33-13.1c7.7-8.7,11.6-21.2,11.7-37.5v-8.5c0-16.6-3.7-29.2-11.1-38c-7.4-8.7-18.2-13.1-32.3-13.1H1009.9z"/>
	<g>
		<path class="st0" d="M307.7,220c-1.1,1.4-2.6,2.5-4.5,3.2c-1.9,0.7-4.1,1.1-6.5,1.1c-2.5,0-4.7-0.6-6.6-1.7
			c-1.9-1.1-3.4-2.7-4.4-4.8c-1-2.1-1.6-4.5-1.6-7.3V208c0-4.5,1.1-8,3.2-10.5c2.1-2.5,5.1-3.8,9-3.8c3.3,0,5.9,0.8,7.9,2.5
			c1.9,1.6,3.1,4,3.5,7.1h-5.1c-0.6-3.6-2.6-5.4-6.2-5.4c-2.3,0-4.1,0.8-5.3,2.5c-1.2,1.7-1.8,4.1-1.9,7.3v2.3c0,3.2,0.7,5.7,2,7.5
			c1.4,1.8,3.2,2.7,5.6,2.7c2.6,0,4.5-0.6,5.6-1.8v-5.8h-6.1v-3.9h11.3V220z"/>
		<path class="st0" d="M364.3,206.3c-0.7-0.1-1.3-0.2-2-0.2c-2.3,0-3.8,0.9-4.6,2.6v15.1h-5v-22.1h4.7l0.1,2.5
			c1.2-1.9,2.9-2.9,5-2.9c0.7,0,1.3,0.1,1.8,0.3L364.3,206.3z"/>
		<path class="st0" d="M419.8,223.8c-0.2-0.4-0.4-1.1-0.6-2.1c-1.6,1.6-3.5,2.5-5.8,2.5c-2.2,0-4-0.6-5.4-1.9
			c-1.4-1.3-2.1-2.8-2.1-4.7c0-2.3,0.9-4.2,2.6-5.4c1.7-1.3,4.2-1.9,7.5-1.9h3v-1.4c0-1.1-0.3-2.1-1-2.7c-0.6-0.7-1.6-1-2.9-1
			c-1.1,0-2.1,0.3-2.8,0.8c-0.7,0.6-1.1,1.3-1.1,2.2h-5c0-1.2,0.4-2.3,1.2-3.4c0.8-1.1,1.9-1.9,3.3-2.5c1.4-0.6,2.9-0.9,4.6-0.9
			c2.6,0,4.6,0.6,6.2,1.9c1.5,1.3,2.3,3.1,2.4,5.5v9.9c0,2,0.3,3.6,0.8,4.8v0.3H419.8z M414.4,220.2c1,0,1.9-0.2,2.8-0.7
			c0.9-0.5,1.5-1.1,1.9-1.9v-4.2h-2.7c-1.8,0-3.2,0.3-4.1,1c-0.9,0.6-1.4,1.5-1.4,2.7c0,1,0.3,1.7,0.9,2.3
			C412.5,220,413.3,220.2,414.4,220.2z"/>
		<path class="st0" d="M488.4,213c0,3.4-0.8,6.1-2.3,8.2c-1.6,2-3.6,3-6.2,3c-2.4,0-4.4-0.8-5.8-2.4v10.5h-5v-30.5h4.6l0.2,2.2
			c1.5-1.8,3.4-2.6,5.9-2.6c2.7,0,4.8,1,6.3,3c1.5,2,2.3,4.8,2.3,8.3V213z M483.4,212.6c0-2.2-0.4-3.9-1.3-5.2
			c-0.9-1.3-2.1-1.9-3.8-1.9c-2,0-3.5,0.8-4.4,2.5v9.8c0.9,1.7,2.4,2.6,4.4,2.6c1.6,0,2.8-0.6,3.7-1.9
			C483,217.1,483.4,215.2,483.4,212.6z"/>
		<path class="st0" d="M537.3,204.2c1.6-1.9,3.7-2.8,6.1-2.8c4.7,0,7.1,2.7,7.2,8v14.4h-5v-14.2c0-1.5-0.3-2.6-1-3.2
			c-0.7-0.6-1.6-0.9-2.9-0.9c-2,0-3.5,0.9-4.4,2.7v15.8h-5v-31.3h5V204.2z"/>
		<path class="st0" d="M595.4,196c0-0.8,0.2-1.4,0.7-1.9c0.5-0.5,1.2-0.8,2.1-0.8s1.6,0.3,2.1,0.8c0.5,0.5,0.7,1.1,0.7,1.9
			c0,0.7-0.2,1.4-0.7,1.9c-0.5,0.5-1.2,0.7-2.1,0.7s-1.6-0.3-2.1-0.7C595.7,197.4,595.4,196.8,595.4,196z M600.7,223.8h-5v-22.1h5
			V223.8z"/>
		<path class="st0" d="M655,220.3c1.2,0,2.3-0.4,3.1-1.1c0.8-0.7,1.3-1.6,1.3-2.7h4.7c-0.1,1.4-0.5,2.7-1.3,3.8
			c-0.8,1.2-1.9,2.1-3.3,2.8c-1.4,0.7-2.9,1-4.4,1c-3.1,0-5.5-1-7.3-3c-1.8-2-2.7-4.8-2.7-8.3v-0.5c0-3.4,0.9-6,2.7-8.1
			c1.8-2,4.2-3,7.3-3c2.6,0,4.8,0.8,6.4,2.3c1.6,1.5,2.5,3.5,2.6,6h-4.7c-0.1-1.3-0.5-2.3-1.3-3.1c-0.8-0.8-1.8-1.2-3.1-1.2
			c-1.6,0-2.8,0.6-3.7,1.7c-0.9,1.2-1.3,2.9-1.3,5.3v0.8c0,2.4,0.4,4.2,1.3,5.3C652.1,219.7,653.4,220.3,655,220.3z"/>
		<path class="st0" d="M758.3,223.8v-29.7h8.8c2.6,0,4.9,0.6,7,1.8c2,1.2,3.6,2.8,4.7,5c1.1,2.1,1.7,4.6,1.7,7.4v1.5
			c0,2.8-0.6,5.3-1.7,7.4c-1.1,2.1-2.7,3.8-4.8,4.9c-2.1,1.2-4.4,1.7-7.1,1.7H758.3z M763.5,198.3v21.4h3.4c2.7,0,4.8-0.8,6.2-2.5
			c1.4-1.7,2.2-4.1,2.2-7.3v-1.7c0-3.2-0.7-5.7-2.1-7.4c-1.4-1.7-3.4-2.5-6.1-2.5H763.5z"/>
		<path class="st0" d="M834.6,224.2c-3.1,0-5.7-1-7.6-3c-1.9-2-2.9-4.6-2.9-7.9v-0.6c0-2.2,0.4-4.2,1.3-5.9c0.8-1.7,2-3.1,3.6-4
			c1.5-1,3.2-1.4,5.1-1.4c3,0,5.3,1,7,2.9c1.6,1.9,2.5,4.6,2.5,8.1v2h-14.4c0.1,1.8,0.8,3.3,1.8,4.3c1.1,1.1,2.4,1.6,4,1.6
			c2.3,0,4.1-0.9,5.5-2.8l2.7,2.5c-0.9,1.3-2.1,2.3-3.5,3.1C838.1,223.9,836.5,224.2,834.6,224.2z M834.1,205.3
			c-1.4,0-2.5,0.5-3.3,1.4c-0.8,0.9-1.4,2.3-1.6,4h9.4v-0.4c-0.1-1.7-0.5-2.9-1.3-3.8C836.5,205.8,835.4,205.3,834.1,205.3z"/>
		<path class="st0" d="M899.5,217.8c0-0.9-0.4-1.6-1.1-2c-0.7-0.5-1.9-0.9-3.6-1.2c-1.7-0.4-3.1-0.8-4.2-1.3
			c-2.5-1.2-3.7-2.9-3.7-5.2c0-1.9,0.8-3.5,2.4-4.8c1.6-1.3,3.6-1.9,6.1-1.9c2.6,0,4.8,0.6,6.4,2c1.6,1.3,2.4,3,2.4,5.1h-5
			c0-1-0.4-1.7-1.1-2.4c-0.7-0.6-1.6-0.9-2.8-0.9c-1.1,0-2,0.3-2.7,0.8c-0.7,0.5-1,1.2-1,2c0,0.8,0.3,1.4,1,1.8
			c0.6,0.4,1.9,0.8,3.9,1.3c1.9,0.4,3.5,0.9,4.6,1.5c1.1,0.6,1.9,1.3,2.5,2.1c0.5,0.8,0.8,1.8,0.8,3c0,2-0.8,3.6-2.5,4.8
			c-1.6,1.2-3.8,1.8-6.5,1.8c-1.8,0-3.4-0.3-4.8-1c-1.4-0.7-2.5-1.6-3.3-2.7c-0.8-1.1-1.2-2.4-1.2-3.7h4.8c0.1,1.2,0.5,2.1,1.3,2.7
			c0.8,0.6,1.9,0.9,3.2,0.9c1.3,0,2.3-0.2,3-0.7C899.2,219.3,899.5,218.6,899.5,217.8z"/>
		<path class="st0" d="M948.5,196c0-0.8,0.2-1.4,0.7-1.9c0.5-0.5,1.2-0.8,2.1-0.8c0.9,0,1.6,0.3,2.1,0.8c0.5,0.5,0.7,1.1,0.7,1.9
			c0,0.7-0.2,1.4-0.7,1.9c-0.5,0.5-1.2,0.7-2.1,0.7c-0.9,0-1.6-0.3-2.1-0.7C948.8,197.4,948.5,196.8,948.5,196z M953.8,223.8h-5
			v-22.1h5V223.8z"/>
		<path class="st0" d="M998.2,212.6c0-3.4,0.8-6.2,2.4-8.2c1.6-2,3.7-3.1,6.4-3.1c2.5,0,4.5,0.9,5.9,2.6l0.2-2.2h4.5v21.4
			c0,2.9-0.9,5.2-2.7,6.8c-1.8,1.7-4.2,2.5-7.3,2.5c-1.6,0-3.2-0.3-4.7-1c-1.5-0.7-2.7-1.5-3.5-2.6l2.3-3c1.5,1.8,3.4,2.7,5.6,2.7
			c1.6,0,2.9-0.4,3.9-1.3c0.9-0.9,1.4-2.2,1.4-3.9v-1.5c-1.4,1.6-3.3,2.4-5.7,2.4c-2.6,0-4.7-1-6.3-3.1
			C999,219.1,998.2,216.3,998.2,212.6z M1003.1,213.1c0,2.2,0.5,4,1.4,5.2c0.9,1.3,2.2,1.9,3.8,1.9c2,0,3.5-0.9,4.4-2.6v-9.7
			c-0.9-1.7-2.4-2.5-4.4-2.5c-1.6,0-2.9,0.6-3.8,1.9C1003.5,208.6,1003.1,210.5,1003.1,213.1z"/>
	</g>
	<g>
		<path class="st0" d="M1067.5,201.8l0.1,2.5c1.6-2,3.8-3,6.4-3c4.6,0,6.9,2.6,7,7.9v14.6h-5v-14.3c0-1.4-0.3-2.4-0.9-3.1
			c-0.6-0.7-1.6-1-3-1c-2,0-3.5,0.9-4.5,2.7v15.7h-5v-22.1H1067.5z"/>
	</g>
</g>
</svg>
